<svg xmlns="http://www.w3.org/2000/svg" viewBox="0 0 1024 1024" role="img" aria-label="Pith blue p icon source">
  <defs>
    <linearGradient id="tile" x1="180" y1="112" x2="844" y2="914" gradientUnits="userSpaceOnUse">
      <stop offset="0" stop-color="#ffffff"/>
      <stop offset="1" stop-color="#fbfdff"/>
    </linearGradient>
  </defs>
  <rect x="92" y="90" width="840" height="840" rx="164" fill="url(#tile)" stroke="#e7eaee" stroke-width="6"/>
  <path
    fill="#2f82f3"
    fill-rule="evenodd"
    d="M374 742V414C374 292 470 202 608 202C744 202 848 308 848 448C848 596 734 706 598 706C552 706 510 696 474 678V742C474 790 452 818 424 818C396 818 374 790 374 742ZM474 450C474 514 526 566 606 566C688 566 746 514 746 448C746 384 688 334 606 334C526 334 474 384 474 450ZM474 568C500 590 540 604 588 604C690 604 768 536 768 448C768 360 698 292 606 292C506 292 438 354 438 450V566L474 526V568Z"
  />
</svg>
